<mxfile host="app.diagrams.net" agent="Mozilla/5.0 (Windows NT 10.0; Win64; x64) AppleWebKit/537.36 (KHTML, like Gecko) Chrome/135.0.0.0 Safari/537.36" version="26.2.14">
  <diagram name="Page-1" id="0hu-WiJrdFXmNe6Fhl_4">
    <mxGraphModel dx="1025" dy="498" grid="1" gridSize="10" guides="1" tooltips="1" connect="1" arrows="1" fold="1" page="1" pageScale="1" pageWidth="827" pageHeight="1169" math="0" shadow="0">
      <root>
        <mxCell id="0" />
        <mxCell id="1" parent="0" />
        <mxCell id="AMulFncOFyFH_SAeHhPj-1" value="&lt;span style=&quot;color: rgb(0, 0, 0); font-size: 12px;&quot;&gt;This sequence diagram illustrates the turn taking between players&lt;/span&gt;" style="shape=note;strokeWidth=2;fontSize=14;size=20;whiteSpace=wrap;html=1;fillColor=#fff2cc;strokeColor=#d6b656;fontColor=#666600;align=left;" vertex="1" parent="1">
          <mxGeometry x="161" y="10" width="120" height="100" as="geometry" />
        </mxCell>
        <mxCell id="AMulFncOFyFH_SAeHhPj-2" value=":GameController" style="rounded=0;whiteSpace=wrap;html=1;" vertex="1" parent="1">
          <mxGeometry x="10" y="131" width="120" height="40" as="geometry" />
        </mxCell>
        <mxCell id="AMulFncOFyFH_SAeHhPj-3" value="`" style="endArrow=none;dashed=1;html=1;rounded=0;entryX=0.5;entryY=1;entryDx=0;entryDy=0;strokeColor=#747474;" edge="1" parent="1" target="AMulFncOFyFH_SAeHhPj-2">
          <mxGeometry x="-0.0986" width="50" height="50" relative="1" as="geometry">
            <mxPoint x="70" y="400" as="sourcePoint" />
            <mxPoint x="70.5" y="275" as="targetPoint" />
            <Array as="points" />
            <mxPoint as="offset" />
          </mxGeometry>
        </mxCell>
        <mxCell id="AMulFncOFyFH_SAeHhPj-4" value="" style="rounded=0;whiteSpace=wrap;html=1;" vertex="1" parent="1">
          <mxGeometry x="65" y="220" width="10" height="150" as="geometry" />
        </mxCell>
        <mxCell id="AMulFncOFyFH_SAeHhPj-7" value="&lt;span style=&quot;color: rgb(0, 0, 0); font-size: 12px;&quot;&gt;Scenario specific to a Game with 2 players, after player 1 has finished their turn (moving and building)&lt;/span&gt;" style="shape=note;strokeWidth=2;fontSize=14;size=20;whiteSpace=wrap;html=1;fillColor=#fff2cc;strokeColor=#d6b656;fontColor=#666600;align=left;" vertex="1" parent="1">
          <mxGeometry x="10" y="10" width="140" height="100" as="geometry" />
        </mxCell>
        <mxCell id="AMulFncOFyFH_SAeHhPj-10" value="endTurn()" style="text;whiteSpace=wrap;html=1;" vertex="1" parent="1">
          <mxGeometry x="304" y="278" width="110" height="40" as="geometry" />
        </mxCell>
        <mxCell id="AMulFncOFyFH_SAeHhPj-11" value="" style="endArrow=classic;html=1;rounded=0;edgeStyle=orthogonalEdgeStyle;exitX=0.991;exitY=0.026;exitDx=0;exitDy=0;exitPerimeter=0;" edge="1" parent="1" source="AMulFncOFyFH_SAeHhPj-4">
          <mxGeometry width="50" height="50" relative="1" as="geometry">
            <mxPoint x="75.00000000000006" y="205" as="sourcePoint" />
            <mxPoint x="75.31" y="355.87" as="targetPoint" />
            <Array as="points">
              <mxPoint x="300" y="227" />
              <mxPoint x="300" y="356" />
            </Array>
          </mxGeometry>
        </mxCell>
        <mxCell id="AMulFncOFyFH_SAeHhPj-13" value="selectedWorker:Worker" style="rounded=0;whiteSpace=wrap;html=1;" vertex="1" parent="1">
          <mxGeometry x="98" y="180" width="130" height="40" as="geometry" />
        </mxCell>
        <mxCell id="AMulFncOFyFH_SAeHhPj-14" value="`" style="endArrow=none;dashed=1;html=1;rounded=0;entryX=0.5;entryY=1;entryDx=0;entryDy=0;strokeColor=#747474;" edge="1" parent="1" target="AMulFncOFyFH_SAeHhPj-13">
          <mxGeometry x="-1" y="4" width="50" height="50" relative="1" as="geometry">
            <mxPoint x="163" y="400" as="sourcePoint" />
            <mxPoint x="158.5" y="317" as="targetPoint" />
            <Array as="points" />
            <mxPoint x="1" y="3" as="offset" />
          </mxGeometry>
        </mxCell>
        <mxCell id="AMulFncOFyFH_SAeHhPj-15" value="" style="rounded=0;whiteSpace=wrap;html=1;" vertex="1" parent="1">
          <mxGeometry x="159" y="237" width="10" height="23" as="geometry" />
        </mxCell>
        <mxCell id="AMulFncOFyFH_SAeHhPj-17" value="&lt;font style=&quot;font-size: 11px;&quot;&gt;resetHistory()&lt;/font&gt;" style="text;html=1;align=center;verticalAlign=middle;whiteSpace=wrap;rounded=0;" vertex="1" parent="1">
          <mxGeometry x="83" y="229.47" width="60" height="30" as="geometry" />
        </mxCell>
        <mxCell id="AMulFncOFyFH_SAeHhPj-19" value="game:Game" style="rounded=0;whiteSpace=wrap;html=1;" vertex="1" parent="1">
          <mxGeometry x="210" y="131" width="130" height="40" as="geometry" />
        </mxCell>
        <mxCell id="AMulFncOFyFH_SAeHhPj-20" value="`" style="endArrow=none;dashed=1;html=1;rounded=0;entryX=0.5;entryY=1;entryDx=0;entryDy=0;strokeColor=#747474;" edge="1" parent="1" target="AMulFncOFyFH_SAeHhPj-19" source="AMulFncOFyFH_SAeHhPj-21">
          <mxGeometry x="-1" y="-18" width="50" height="50" relative="1" as="geometry">
            <mxPoint x="275" y="398" as="sourcePoint" />
            <mxPoint x="270.5" y="268" as="targetPoint" />
            <Array as="points" />
            <mxPoint x="-18" y="18" as="offset" />
          </mxGeometry>
        </mxCell>
        <mxCell id="AMulFncOFyFH_SAeHhPj-22" value="&lt;font style=&quot;font-size: 11px;&quot;&gt;nextTurn()&lt;/font&gt;" style="text;html=1;align=center;verticalAlign=middle;whiteSpace=wrap;rounded=0;" vertex="1" parent="1">
          <mxGeometry x="180" y="248" width="60" height="30" as="geometry" />
        </mxCell>
        <mxCell id="AMulFncOFyFH_SAeHhPj-23" value="" style="html=1;verticalAlign=bottom;endArrow=block;edgeStyle=elbowEdgeStyle;elbow=vertical;curved=0;rounded=0;exitX=1.031;exitY=0.115;exitDx=0;exitDy=0;exitPerimeter=0;entryX=0;entryY=0.369;entryDx=0;entryDy=0;entryPerimeter=0;" edge="1" parent="1">
          <mxGeometry relative="1" as="geometry">
            <mxPoint x="75.31" y="273.2800000000001" as="sourcePoint" />
            <Array as="points" />
            <mxPoint x="270" y="273.54200000000003" as="targetPoint" />
          </mxGeometry>
        </mxCell>
        <mxCell id="AMulFncOFyFH_SAeHhPj-24" value="" style="endArrow=none;dashed=1;html=1;rounded=0;entryX=0.5;entryY=1;entryDx=0;entryDy=0;strokeColor=#747474;" edge="1" parent="1" target="AMulFncOFyFH_SAeHhPj-21">
          <mxGeometry x="-1" y="-18" width="50" height="50" relative="1" as="geometry">
            <mxPoint x="275" y="400" as="sourcePoint" />
            <mxPoint x="275" y="171" as="targetPoint" />
            <Array as="points" />
            <mxPoint x="-18" y="18" as="offset" />
          </mxGeometry>
        </mxCell>
        <mxCell id="AMulFncOFyFH_SAeHhPj-21" value="" style="rounded=0;whiteSpace=wrap;html=1;" vertex="1" parent="1">
          <mxGeometry x="270" y="260" width="10" height="80" as="geometry" />
        </mxCell>
        <mxCell id="AMulFncOFyFH_SAeHhPj-25" value="" style="html=1;verticalAlign=bottom;endArrow=block;edgeStyle=elbowEdgeStyle;elbow=horizontal;curved=0;rounded=0;exitX=1.031;exitY=0.115;exitDx=0;exitDy=0;exitPerimeter=0;entryX=0.16;entryY=0.135;entryDx=0;entryDy=0;entryPerimeter=0;" edge="1" parent="1">
          <mxGeometry relative="1" as="geometry">
            <mxPoint x="75" y="253.25000000000009" as="sourcePoint" />
            <Array as="points" />
            <mxPoint x="160.69" y="253.49999999999997" as="targetPoint" />
          </mxGeometry>
        </mxCell>
        <mxCell id="AMulFncOFyFH_SAeHhPj-26" value="&lt;font style=&quot;font-size: 11px;&quot;&gt;getCurrentPlayer()&lt;/font&gt;" style="text;html=1;align=center;verticalAlign=middle;whiteSpace=wrap;rounded=0;" vertex="1" parent="1">
          <mxGeometry x="183" y="278" width="60" height="30" as="geometry" />
        </mxCell>
        <mxCell id="AMulFncOFyFH_SAeHhPj-27" value="" style="html=1;verticalAlign=bottom;endArrow=block;edgeStyle=elbowEdgeStyle;elbow=vertical;curved=0;rounded=0;exitX=1.031;exitY=0.115;exitDx=0;exitDy=0;exitPerimeter=0;entryX=0;entryY=0.369;entryDx=0;entryDy=0;entryPerimeter=0;" edge="1" parent="1">
          <mxGeometry relative="1" as="geometry">
            <mxPoint x="75.31" y="303.2800000000001" as="sourcePoint" />
            <Array as="points" />
            <mxPoint x="270" y="303.54200000000003" as="targetPoint" />
          </mxGeometry>
        </mxCell>
        <mxCell id="AMulFncOFyFH_SAeHhPj-28" value="" style="edgeStyle=none;orthogonalLoop=1;jettySize=auto;html=1;rounded=0;entryX=0.966;entryY=0.067;entryDx=0;entryDy=0;entryPerimeter=0;dashed=1;endArrow=open;endFill=0;" edge="1" parent="1">
          <mxGeometry width="100" relative="1" as="geometry">
            <mxPoint x="270" y="333" as="sourcePoint" />
            <mxPoint x="75.00000000000009" y="333.3399999999999" as="targetPoint" />
            <Array as="points" />
          </mxGeometry>
        </mxCell>
        <mxCell id="AMulFncOFyFH_SAeHhPj-29" value="&lt;font style=&quot;font-size: 11px;&quot;&gt;currentPlayer&lt;/font&gt;" style="text;whiteSpace=wrap;html=1;align=center;" vertex="1" parent="1">
          <mxGeometry x="150" y="308" width="110" height="40" as="geometry" />
        </mxCell>
        <mxCell id="AMulFncOFyFH_SAeHhPj-30" value="&lt;span style=&quot;color: rgb(0, 0, 0); font-size: 12px;&quot;&gt;currentPlayer now holds the next player&#39;s turn&lt;/span&gt;" style="shape=note;strokeWidth=2;fontSize=14;size=20;whiteSpace=wrap;html=1;fillColor=#fff2cc;strokeColor=#d6b656;fontColor=#666600;align=left;" vertex="1" parent="1">
          <mxGeometry x="309" y="318" width="100" height="87" as="geometry" />
        </mxCell>
      </root>
    </mxGraphModel>
  </diagram>
</mxfile>
